PathFileType	4	(X/Y/Z)	walk-thru1-2-TP.trc
DataRate	CameraRate	NumFrames	NumMarkers	Units	OrigDataRate	OrigDataStartFrame	OrigNumFrames
120.00	120.00	       5	60	mm	120.00	63	       503
Frame#	Time	Top.Head			Front.Head			Rear.Head			Jaw			C7			R.Clavicle			L.Clavicle			R.Shoulder			L.Shoulder			R.Scapula			L.Scapula			R.Scap.Inf			R.Biceps.Lateral			R.Elbow			R.Elbow.Medial			R.Forearm			R.Ulna			R.Radius			R.Wrist			R.Thumb.M1			R.Thumb.M2			R.Thumb.M3			R.Finger3.M1			R.Finger3.M2			R.Finger3.M3			L.Biceps.Lateral			L.Elbow			L.Elbow.Medial			L.Forearm			L.Ulna			L.Radius			L.Wrist			L.Thumb.M1			L.Thumb.M2			L.Thumb.M3			L.Finger3.M1			L.Finger3.M2			L.Finger3.M3			V.Sacral			R.ASIS			L.ASIS			R.Thigh			R.Thigh.Front			R.Knee			R.Knee.Medial			R.Shank			R.Ankle			R.Ankle.Medial			R.Heel			R.Toe			R.MedFoot			L.Thigh			L.Knee			L.Knee.Medial			L.Shank			L.Ankle			L.Ankle.Medial			L.Heel			L.Toe			L.MedFoot			V_mid_ASIS			V_R_Knee_JC			V_L_Knee_JC			V_R_Elbow_JC			V_L_Elbow_JC			V_R_Ankle_JC			V_L_Ankle_JC			V_R_Wrist_JC			V_L_Wrist_JC			V_R_ScaTrpz_1stMC_JC			V_R_1stMC_1stPP_JC			V_R_1stPP_1stDP_JC			V_R_LunCap_3rdMC_JC			V_R_3rdMC_3rdPP_JC			V_R_3rdPP_3rdMP_JC			V_R_3rdMP_3rdDP_JC			V_L_ScaTrpz_1stMC_JC			V_L_1stMC_1stPP_JC			V_L_1stPP_1stDP_JC			V_L_LunCap_3rdMC_JC			V_L_3rdMC_3rdPP_JC			V_L_3rdPP_3rdMP_JC			V_L_3rdMP_3rdPP_JC			V_ROOT_JC			V_R_Hip_JC			V_L_Hip_JC			V_R_GlenHum_JC			V_L_GlenHum_JC			V_ForeHead_Ctr			V_Vertex			V_Sagit_Lambdoid_Suture			V_R_FrontoTemp			V_L_FrontoTemporal			V_R_ParietalOccip			V_L_ParietalOcciptal			V_R_Temporal			V_L_Temporal			V_mid_FrontRearHead			V_mid_RLGlenHumCtrs			V_C7_vert			V_C1_vert			V_Mid_Hip			
		X1	Y1	Z1	X2	Y2	Z2	X3	Y3	Z3	X4	Y4	Z4	X5	Y5	Z5	X6	Y6	Z6	X7	Y7	Z7	X8	Y8	Z8	X9	Y9	Z9	X10	Y10	Z10	X11	Y11	Z11	X12	Y12	Z12	X13	Y13	Z13	X14	Y14	Z14	X15	Y15	Z15	X16	Y16	Z16	X17	Y17	Z17	X18	Y18	Z18	X19	Y19	Z19	X20	Y20	Z20	X21	Y21	Z21	X22	Y22	Z22	X23	Y23	Z23	X24	Y24	Z24	X25	Y25	Z25	X26	Y26	Z26	X27	Y27	Z27	X28	Y28	Z28	X29	Y29	Z29	X30	Y30	Z30	X31	Y31	Z31	X32	Y32	Z32	X33	Y33	Z33	X34	Y34	Z34	X35	Y35	Z35	X36	Y36	Z36	X37	Y37	Z37	X38	Y38	Z38	X39	Y39	Z39	X40	Y40	Z40	X41	Y41	Z41	X42	Y42	Z42	X43	Y43	Z43	X44	Y44	Z44	X45	Y45	Z45	X46	Y46	Z46	X47	Y47	Z47	X48	Y48	Z48	X49	Y49	Z49	X50	Y50	Z50	X51	Y51	Z51	X52	Y52	Z52	X53	Y53	Z53	X54	Y54	Z54	X55	Y55	Z55	X56	Y56	Z56	X57	Y57	Z57	X58	Y58	Z58	X59	Y59	Z59	X60	Y60	Z60	

63	0.517	-1215.25488	6.40806	1797.07605	-1116.19543	13.44391	1684.23279	-1342.94348	5.08230	1701.05786	-1162.46936	6.37197	1518.86169	-1357.77319	7.86130	1564.43262	-1265.18665	-113.56802	1471.95935	-1249.19092	111.93416	1467.38989	-1311.66199	-201.26494	1471.01184	-1312.14160	209.25966	1478.50525	-1412.75781	-80.39328	1485.27148	-1406.79321	86.67222	1483.95081	-1463.60461	-90.52937	1398.92578	-1373.55164	-261.75461	1300.05798	-1419.89856	-280.58923	1150.29199	-1436.48682	-191.09387	1134.57556	-1338.56274	-234.47218	1028.18042	-1382.28894	-277.42856	932.36859	-1320.08521	-220.06190	895.82300	-1330.44275	-259.34387	850.11719	-1310.27710	-215.10159	861.68829	-1275.60059	-186.16934	816.96991	-1240.59961	-187.53632	791.01385	-1296.95618	-263.40924	777.28314	-1279.96216	-226.33286	722.23090	-1288.72314	-183.29597	695.77502	-1332.69434	270.15317	1325.61169	-1346.30469	306.59045	1149.01758	-1388.46667	240.36778	1131.32507	-1273.41760	278.83606	1048.25452	-1318.52625	297.33374	955.61115	-1242.68274	245.34399	911.91797	-1251.11243	277.17804	852.67444	-1232.46680	229.65730	848.67181	-1231.00977	192.97824	802.54590	-1217.83313	195.30360	740.91107	-1227.24487	288.75821	779.77740	-1233.88623	266.06058	723.87555	-1252.78479	242.92955	678.73938	-1456.94348	10.58975	1088.97546	-1374.52393	-183.56242	1030.40381	-1348.74292	190.02252	1030.05139	-1279.35400	-170.17654	626.72803	-1193.42212	-97.90082	540.42065	-1261.26453	-153.34192	493.17664	-1256.88379	-34.76360	490.53958	-1355.24207	-108.89417	335.83502	-1587.79492	-143.35948	198.02072	-1548.01941	-49.60738	190.20901	-1644.96704	-88.18572	219.51735	-1483.96326	-93.90613	60.67691	-1512.66492	-60.97217	115.16955	-1275.30811	161.34496	649.72443	-1239.66223	134.08107	504.21207	-1234.47766	18.14323	509.28409	-1227.22754	76.54417	306.72736	-1324.12390	81.53973	60.53778	-1289.87634	-7.80798	106.80287	-1373.28430	15.05761	51.81128	-1138.88806	45.03025	44.55643	-1201.94287	12.44291	69.88373																																																																																																																															
64	0.525	-1209.58350	7.80083	1798.24207	-1109.91541	12.13960	1683.68762	-1337.77832	6.08807	1700.69360	-1156.27344	5.04922	1518.94312	-1352.24597	8.76604	1565.46228	-1262.14099	-114.32483	1472.19946	-1241.76453	113.41290	1469.46143	-1306.03345	-199.32007	1471.16052	-1305.96021	210.39244	1479.54907	-1407.84778	-79.69264	1485.51453	-1400.72461	87.04769	1484.36475	-1459.40210	-89.16001	1399.57922	-1369.51404	-261.08295	1300.32568	-1417.77783	-279.69141	1151.53491	-1433.33826	-190.65535	1134.47363	-1337.26233	-233.63998	1028.91345	-1379.01160	-276.92499	932.29187	-1316.37964	-218.92578	898.65094	-1329.07336	-259.49750	850.69775	-1306.65186	-216.12495	862.55896	-1272.33228	-185.31958	817.99915	-1238.45972	-185.11981	790.39758	-1291.58997	-263.23026	778.15405	-1273.73865	-225.12418	721.89362	-1284.66663	-182.41933	696.34271	-1327.29761	272.70407	1325.69189	-1337.19446	308.07260	1149.08545	-1381.94946	242.86992	1131.64783	-1265.04028	280.08621	1049.20422	-1310.64832	299.42557	956.21021	-1235.00195	243.46275	911.97125	-1242.13452	277.64236	853.73877	-1224.00195	230.43205	850.04352	-1224.34155	193.23210	804.13049	-1210.82861	194.56133	741.76465	-1217.92346	286.49307	781.43079	-1222.44470	263.68805	724.89490	-1241.57983	242.93547	679.50775	-1452.30273	10.15560	1088.94019	-1364.09290	-184.23851	1030.56433	-1344.81885	190.50517	1030.92358	-1269.06226	-169.12146	628.22333	-1180.99609	-98.13616	542.14813	-1248.92834	-152.83569	495.15652	-1240.52515	-33.35810	493.90488	-1343.43494	-110.09667	339.26468	-1576.70117	-144.75137	200.81892	-1537.50098	-49.23882	195.04604	-1634.11853	-86.09438	221.97420	-1472.56921	-96.07587	64.67728	-1500.62280	-62.37821	117.81564	-1273.08679	162.53278	649.79608	-1237.12146	135.08023	503.80725	-1233.00732	18.43211	509.01346	-1225.94263	76.92971	305.75659	-1324.17053	82.39305	60.79514	-1289.87634	-7.80798	106.80287	-1373.24377	15.15128	51.59540	-1138.69556	44.94664	44.45522	-1201.63721	12.63078	69.86809																																																																																																																															
65	0.533	-1204.78662	8.96496	1797.99670	-1103.81604	11.56770	1684.00330	-1331.78442	6.88498	1701.50061	-1150.60999	3.54310	1519.80920	-1347.11462	10.52790	1566.80811	-1256.12634	-113.18359	1472.41406	-1234.88000	112.94106	1469.44434	-1302.09521	-198.97777	1471.62036	-1300.11353	212.17282	1479.41614	-1403.00757	-78.99196	1486.47852	-1395.40405	88.27649	1484.22961	-1453.18604	-87.97912	1399.95984	-1366.26343	-259.97519	1299.83911	-1413.99890	-278.89777	1152.16064	-1430.31433	-189.79463	1135.89490	-1333.68555	-234.72559	1028.89893	-1376.28870	-275.53745	932.57361	-1312.46472	-219.03606	898.35260	-1324.41956	-259.01938	850.37805	-1304.83032	-215.81345	863.94086	-1269.00623	-185.13065	819.36432	-1235.91162	-183.37384	790.56177	-1288.13989	-263.55292	777.97791	-1273.73779	-224.07538	724.38275	-1281.12646	-180.21722	698.66510	-1320.15564	271.59509	1325.85144	-1331.86694	311.32550	1148.40393	-1373.63684	244.86057	1132.27905	-1256.23889	279.99191	1050.01770	-1303.31458	301.59875	956.16406	-1228.92883	248.38461	913.94025	-1233.68628	278.88000	853.90881	-1214.94775	231.03098	851.01904	-1216.66211	192.70651	804.32532	-1200.61853	197.35365	742.77454	-1208.90051	288.16068	782.02820	-1213.53906	264.86261	725.20880	-1230.81165	243.37608	681.32501	-1447.70569	11.19324	1089.57019	-1360.68030	-183.76183	1031.96667	-1338.82654	192.67798	1030.37927	-1258.60779	-168.14961	630.18927	-1170.73694	-97.93501	546.07428	-1235.84448	-152.35519	497.08691	-1229.60364	-32.69331	495.42099	-1335.04065	-106.36838	340.69101	-1565.95935	-144.28325	205.42822	-1526.33691	-48.30282	197.22144	-1623.56763	-86.26045	224.81136	-1460.34131	-100.55939	67.31172	-1488.87476	-63.55991	120.39595	-1272.05579	163.25459	649.80951	-1236.37915	135.56012	503.80328	-1230.06055	18.70086	508.57120	-1225.82056	76.99445	305.61606	-1324.13818	81.41440	61.00838	-1289.87634	-7.80798	106.80287	-1373.28430	15.05761	51.81128	-1138.69556	44.94664	44.45522	-1201.63721	12.63078	69.86809																																																																																																																															
66	0.542	-1198.74390	9.72319	1798.23035	-1099.97327	15.13857	1685.92773	-1326.14063	8.48385	1701.47681	-1146.43335	7.10305	1519.92542	-1341.25537	10.79158	1565.90625	-1252.65320	-112.45272	1473.18457	-1230.83325	114.48671	1469.57153	-1297.04431	-197.49748	1470.70459	-1294.70557	212.91005	1479.24646	-1398.01685	-77.58220	1486.64160	-1390.07056	89.17646	1485.22571	-1448.73059	-86.91540	1400.87915	-1360.95410	-258.74780	1301.15588	-1410.69873	-278.79202	1152.76794	-1426.00562	-188.73819	1135.89380	-1332.01453	-233.66403	1030.12646	-1371.90906	-273.71027	932.87219	-1310.03223	-218.80885	899.53314	-1319.71667	-257.07669	850.37427	-1301.86426	-215.00746	865.53497	-1266.73816	-185.43842	820.23621	-1229.43835	-185.11827	792.61090	-1285.39771	-263.82736	778.00543	-1271.63855	-223.49330	725.27649	-1277.38892	-179.59444	700.13129	-1312.92432	272.34210	1327.30774	-1323.11536	312.82294	1148.46680	-1367.36169	246.25584	1131.34192	-1250.42297	282.94577	1051.06726	-1293.69788	301.40274	956.10321	-1221.13831	247.95044	914.15985	-1224.05493	278.36057	854.20123	-1204.77380	231.99297	852.85980	-1205.38599	196.02153	805.13806	-1192.93506	195.69350	745.00769	-1198.83826	290.47864	783.05579	-1203.73071	266.41238	726.93365	-1221.30688	244.96825	682.06116	-1443.03003	11.39649	1089.42969	-1357.08557	-182.44870	1032.20886	-1334.43311	192.14656	1029.77234	-1249.56885	-167.92416	631.59888	-1159.10620	-97.71091	548.51801	-1225.57080	-151.11555	500.70108	-1220.72461	-32.60553	498.96371	-1323.27832	-107.39310	344.03726	-1554.86218	-143.70320	208.01956	-1513.35437	-50.65644	198.20441	-1612.04517	-85.27393	226.41026	-1450.20020	-103.62680	68.75015	-1476.18542	-65.52193	121.36676	-1269.95081	164.09543	649.46039	-1234.87354	135.17972	503.77750	-1229.06360	19.70528	508.63031	-1224.54883	76.75719	305.60199	-1324.04529	81.73132	60.84229	-1288.98889	-8.56114	107.09770	-1373.33435	15.08628	52.11419	-1138.69556	44.94664	44.45522	-1201.63721	12.63078	69.86809																																																																																																																															
67	0.550	-1192.83484	10.16245	1798.63757	-1094.01538	13.37571	1685.43103	-1320.28284	7.53725	1701.61658	-1139.74268	5.62809	1520.93213	-1336.09363	11.86407	1565.71912	-1245.84363	-113.77761	1473.52063	-1224.68042	113.27717	1468.68091	-1292.27417	-196.93376	1471.16125	-1288.79102	212.05682	1480.12964	-1392.76685	-77.18844	1487.58521	-1385.34668	90.21418	1485.83972	-1443.39001	-85.92971	1400.88330	-1357.71240	-258.19897	1302.19678	-1407.62830	-276.89975	1152.73926	-1422.06689	-188.20497	1136.50830	-1327.00720	-230.35646	1030.10315	-1369.28699	-274.69843	933.48254	-1308.13635	-219.11360	900.28052	-1317.88965	-257.97314	850.85486	-1296.96228	-215.53403	866.72668	-1263.77246	-185.33897	821.37781	-1229.14490	-185.83952	792.32428	-1281.79053	-263.47733	778.47662	-1266.07422	-225.88828	724.44568	-1275.79724	-179.35629	700.93011	-1306.46826	273.95468	1327.68384	-1316.45605	312.73898	1149.51880	-1359.90332	247.73024	1131.85803	-1242.12195	284.22348	1052.19861	-1285.19580	303.10028	956.55750	-1211.36133	249.50340	914.71332	-1215.08423	280.02115	856.14398	-1197.70227	232.04425	853.47900	-1198.24780	194.66548	805.50183	-1182.42383	197.99399	746.59882	-1190.19727	289.75613	783.05945	-1194.22888	268.87497	727.73999	-1211.44568	246.90161	681.97906	-1438.18689	12.79176	1090.10022	-1352.09399	-181.90848	1033.31238	-1330.57788	192.41595	1029.94214	-1237.40515	-166.86368	632.46027	-1148.18079	-95.29802	551.18561	-1213.52332	-152.46594	502.19388	-1210.42200	-31.37046	500.72238	-1309.26428	-108.86771	345.76648	-1543.55518	-143.41817	209.70039	-1500.66296	-51.72214	199.21429	-1599.11914	-84.84886	226.86655	-1435.04150	-107.64985	72.25265	-1463.70154	-68.13303	124.23100	-1266.92236	164.03860	649.15082	-1233.23962	135.16101	503.55771	-1229.09033	20.28922	508.61658	-1223.21399	76.34653	305.67166	-1324.04529	81.73132	60.84229	-1289.88647	-7.75770	106.91096	-1374.27454	16.51846	52.06278	-1139.04602	45.27378	44.43124	-1201.86963	12.50397	69.78823																																																																																																																															
